# xmcd
#
# Track frame offsets:
#	150
#	9582
#	18170
#	26630
#	37880
#	51127
#	61742
#	72337
#	82835
#	96275
#	108275
#	119252
#	133047
#	146827
#	158212
#	174670
#	190440
#	201982
#	217607
#	228647
#
# Disc length: 3214 seconds
# Revision: 4
# Processed by: cddbd v1.5.2PL0 Copyright (c) Steve Scherf et al.
# Submitted via: dBpowerAMP V12.0
#
DISCID=0f0c8c14
DTITLE=Waylon Jennings - Only Daddy That'll Walk The Line: The RCA Years
DYEAR=1993
DGENRE=Country
TTITLE0=Stop The World (And Let Me Off)
TTITLE1=Nashville Bum
TTITLE2=Nashville Rebel
TTITLE3=Green River
TTITLE4=Love Of The Common People
TTITLE5=Walk On Out Of My Mind
TTITLE6=Only Daddy That'll Walk The Line
TTITLE7=Just To Satisfy You
TTITLE8=Willie And Laura Mae Jones
TTITLE9=Six White Horses
TTITLE10=The Taker
TTITLE11=Lovin' Her Was Easier (Than Anything I'll Ever Do Again)
TTITLE12=Good Hearted Woman
TTITLE13=Black Rose
TTITLE14=Lonesome, On'ry And Mean
TTITLE15=Honky Tonk Heroes
TTITLE16=You Asked Me To
TTITLE17=It's Not Supposed To Be That Way
TTITLE18=This Time
TTITLE19=I'm A Ramblin' Man
EXTD=
EXTT0=
EXTT1=
EXTT2=
EXTT3=
EXTT4=
EXTT5=
EXTT6=
EXTT7=
EXTT8=
EXTT9=
EXTT10=
EXTT11=
EXTT12=
EXTT13=
EXTT14=
EXTT15=
EXTT16=
EXTT17=
EXTT18=
EXTT19=
PLAYORDER=
